<svg xmlns="http://www.w3.org/2000/svg" version="1.1" xmlns:xlink="http://www.w3.org/1999/xlink" xmlns:svgjs="http://svgjs.dev/svgjs" width="1500" height="678" viewBox="0 0 1500 678"><g transform="matrix(1,0,0,1,-0.9090909090909918,0.774990697784574)"><svg viewBox="0 0 396 179" data-background-color="#d2d6d9" preserveAspectRatio="xMidYMid meet" height="678" width="1500" xmlns="http://www.w3.org/2000/svg" xmlns:xlink="http://www.w3.org/1999/xlink"><g id="tight-bounds" transform="matrix(1,0,0,1,0.2400000000000091,-0.20460668864814124)"><svg viewBox="0 0 395.52 179.40921337729628" height="179.40921337729628" width="395.52"><g><svg viewBox="0 0 395.52 179.40921337729628" height="179.40921337729628" width="395.52"><g><svg viewBox="0 0 395.52 179.40921337729628" height="179.40921337729628" width="395.52"><g id="textblocktransform"><svg viewBox="0 0 395.52 179.40921337729628" height="179.40921337729628" width="395.52" id="textblock"><g><svg viewBox="0 0 395.52 179.40921337729628" height="179.40921337729628" width="395.52"><g transform="matrix(1,0,0,1,0,0)"><svg width="395.52" viewBox="105.8 -35.1 212.29999999999995 83.9" height="179.40921337729628" data-palette-color="#241e17"><svg></svg><svg></svg><g class="wordmark-text-0" data-fill-palette-color="primary" id="text-0"><path d="M119.35-35.1v0c1.467 0 2.727 0.033 3.78 0.1 1.047 0.067 2.013 0.173 2.9 0.32 0.88 0.153 1.787 0.347 2.72 0.58v0l-0.45 3.35c-1-0.1-1.923-0.183-2.77-0.25-0.853-0.067-1.763-0.117-2.73-0.15-0.967-0.033-2.117-0.05-3.45-0.05v0c-2.233 0-4 0.433-5.3 1.3-1.3 0.867-2.223 2.317-2.77 4.35-0.553 2.033-0.83 4.8-0.83 8.3v0c0 3.5 0.277 6.267 0.83 8.3 0.547 2.033 1.47 3.483 2.77 4.35 1.3 0.867 3.067 1.3 5.3 1.3v0c2.133 0 3.927-0.043 5.38-0.13 1.447-0.08 2.87-0.22 4.27-0.42v0l0.45 3.3c-1.433 0.4-2.907 0.693-4.42 0.88-1.52 0.18-3.413 0.27-5.68 0.27v0c-3.3 0-5.94-0.577-7.92-1.73-1.987-1.147-3.42-3.02-4.3-5.62-0.887-2.6-1.33-6.1-1.33-10.5v0c0-4.4 0.443-7.9 1.33-10.5 0.88-2.6 2.313-4.477 4.3-5.63 1.98-1.147 4.62-1.72 7.92-1.72zM146.65-24.95v0c1.8 0 3.327 0.24 4.58 0.72 1.247 0.487 2.187 1.297 2.82 2.43 0.633 1.133 0.95 2.683 0.95 4.65v0 17.15h-3.35l-0.65-5.3-0.3-0.55v-11.3c0-1.5-0.343-2.577-1.03-3.23-0.68-0.647-1.987-0.97-3.92-0.97v0c-1.267 0-2.857 0.067-4.77 0.2-1.92 0.133-3.813 0.283-5.68 0.45v0l-0.4-3.15c1.133-0.2 2.377-0.383 3.73-0.55 1.347-0.167 2.72-0.3 4.12-0.4 1.4-0.1 2.7-0.15 3.9-0.15zM140.55-15h12.45l-0.05 3.2-11.65 0.05c-1.167 0.033-1.983 0.34-2.45 0.92-0.467 0.587-0.7 1.397-0.7 2.43v0 1.55c0 1.267 0.3 2.19 0.9 2.77 0.6 0.587 1.567 0.88 2.9 0.88v0c0.933 0 1.993-0.177 3.18-0.53 1.18-0.347 2.37-0.887 3.57-1.62 1.2-0.733 2.3-1.667 3.3-2.8v0 3.15c-0.367 0.467-0.893 1.007-1.58 1.62-0.68 0.62-1.493 1.22-2.44 1.8-0.953 0.587-2.003 1.07-3.15 1.45-1.153 0.387-2.397 0.58-3.73 0.58v0c-1.433 0-2.7-0.26-3.8-0.78-1.1-0.513-1.957-1.28-2.57-2.3-0.62-1.013-0.93-2.253-0.93-3.72v0-2.65c0-1.9 0.593-3.377 1.78-4.43 1.18-1.047 2.837-1.57 4.97-1.57zM162.6-24.35h3.3l0.55 4.65 0.4 0.75v18.95h-4.25zM176.75-24.95h1.1l-0.5 4h-1.4c-1.433 0-2.867 0.29-4.3 0.87-1.433 0.587-3.183 1.413-5.25 2.48v0l-0.35-2.65c1.8-1.467 3.61-2.617 5.43-3.45 1.813-0.833 3.57-1.25 5.27-1.25zM199.8-24.35h4.5l-8.9 23.3c-0.133 0.333-0.323 0.59-0.57 0.77-0.253 0.187-0.563 0.28-0.93 0.28v0h-3.85c-0.333 0-0.633-0.093-0.9-0.28-0.267-0.18-0.467-0.437-0.6-0.77v0l-8.9-23.3h4.55l6 17.05c0.267 0.7 0.517 1.417 0.75 2.15 0.233 0.733 0.467 1.433 0.7 2.1v0h0.65c0.267-0.7 0.527-1.41 0.78-2.13 0.247-0.713 0.487-1.42 0.72-2.12v0zM218.85-24.95v0c3.667 0 6.327 0.667 7.98 2 1.647 1.333 2.47 3.317 2.47 5.95v0c0.033 2.167-0.417 3.857-1.35 5.07-0.933 1.22-2.417 1.83-4.45 1.83v0h-14.2v-3.3h13.1c1.1 0 1.817-0.377 2.15-1.13 0.333-0.747 0.5-1.57 0.5-2.47v0c-0.033-1.567-0.5-2.683-1.4-3.35-0.9-0.667-2.433-1-4.6-1v0c-1.767 0-3.157 0.257-4.17 0.77-1.02 0.52-1.737 1.42-2.15 2.7-0.42 1.287-0.63 3.08-0.63 5.38v0c0 2.6 0.26 4.583 0.78 5.95 0.513 1.367 1.337 2.3 2.47 2.8 1.133 0.5 2.633 0.75 4.5 0.75v0c1.3 0 2.727-0.06 4.28-0.18 1.547-0.113 2.937-0.253 4.17-0.42v0l0.45 2.85c-0.767 0.3-1.707 0.55-2.82 0.75-1.12 0.2-2.27 0.35-3.45 0.45-1.187 0.1-2.247 0.15-3.18 0.15v0c-2.8 0-5.05-0.427-6.75-1.28-1.7-0.847-2.94-2.213-3.72-4.1-0.787-1.88-1.18-4.37-1.18-7.47v0c0-3.2 0.393-5.727 1.18-7.58 0.78-1.847 1.997-3.163 3.65-3.95 1.647-0.78 3.77-1.17 6.37-1.17zM245.05-34.5h4.6c0.4 0 0.75 0.107 1.05 0.32 0.3 0.22 0.5 0.513 0.6 0.88v0l11.1 33.3h-4.55l-8.95-28.3c-0.133-0.467-0.273-0.943-0.42-1.43-0.153-0.48-0.297-0.937-0.43-1.37v0h-1.4c-0.133 0.433-0.267 0.89-0.4 1.37-0.133 0.487-0.283 0.963-0.45 1.43v0l-8.95 28.3h-4.55l11.1-33.3c0.1-0.367 0.3-0.66 0.6-0.88 0.3-0.213 0.65-0.32 1.05-0.32zM238.55-14.6h17.5v3.8h-17.5zM280.75-24.95v0c2.967 0 5.1 1.09 6.4 3.27 1.3 2.187 1.95 5.397 1.95 9.63v0c0 3.133-0.333 5.623-1 7.47-0.667 1.853-1.673 3.18-3.02 3.98-1.353 0.8-3.08 1.2-5.18 1.2v0c-1.6 0-3.173-0.217-4.72-0.65-1.553-0.433-3.063-1.1-4.53-2v0l0.25-2.55c1.567 0.433 2.95 0.79 4.15 1.07 1.2 0.287 2.467 0.43 3.8 0.43v0c1.433 0 2.577-0.25 3.43-0.75 0.847-0.5 1.47-1.4 1.87-2.7 0.4-1.3 0.6-3.133 0.6-5.5v0c0-2.3-0.183-4.117-0.55-5.45-0.367-1.333-0.94-2.293-1.72-2.88-0.787-0.58-1.83-0.87-3.13-0.87v0c-1.333 0-2.65 0.317-3.95 0.95-1.3 0.633-2.817 1.6-4.55 2.9v0l-0.4-2.85c0.9-0.967 1.917-1.8 3.05-2.5 1.133-0.7 2.327-1.243 3.58-1.63 1.247-0.38 2.47-0.57 3.67-0.57zM266.8-24.35h3.5l0.45 5.05 0.3 0.65v15.6l-0.2 0.6c0.1 0.933 0.16 1.833 0.18 2.7 0.013 0.867 0.02 1.783 0.02 2.75v0 7.05h-4.25zM309.75-24.95v0c2.967 0 5.1 1.09 6.4 3.27 1.3 2.187 1.95 5.397 1.95 9.63v0c0 3.133-0.333 5.623-1 7.47-0.667 1.853-1.673 3.18-3.02 3.98-1.353 0.8-3.08 1.2-5.18 1.2v0c-1.6 0-3.173-0.217-4.72-0.65-1.553-0.433-3.063-1.1-4.53-2v0l0.25-2.55c1.567 0.433 2.95 0.79 4.15 1.07 1.2 0.287 2.467 0.43 3.8 0.43v0c1.433 0 2.577-0.25 3.43-0.75 0.847-0.5 1.47-1.4 1.87-2.7 0.4-1.3 0.6-3.133 0.6-5.5v0c0-2.3-0.183-4.117-0.55-5.45-0.367-1.333-0.94-2.293-1.72-2.88-0.787-0.58-1.83-0.87-3.13-0.87v0c-1.333 0-2.65 0.317-3.95 0.95-1.3 0.633-2.817 1.6-4.55 2.9v0l-0.4-2.85c0.9-0.967 1.917-1.8 3.05-2.5 1.133-0.7 2.327-1.243 3.58-1.63 1.247-0.38 2.47-0.57 3.67-0.57zM295.8-24.35h3.5l0.45 5.05 0.3 0.65v15.6l-0.2 0.6c0.1 0.933 0.16 1.833 0.18 2.7 0.013 0.867 0.02 1.783 0.02 2.75v0 7.05h-4.25z" fill="#241e17" fill-rule="nonzero" stroke="none" stroke-width="1" stroke-linecap="butt" stroke-linejoin="miter" stroke-miterlimit="10" stroke-dasharray="" stroke-dashoffset="0" font-family="none" font-weight="none" font-size="none" text-anchor="none" style="mix-blend-mode: normal" data-fill-palette-color="primary" opacity="1"></path><path d="M118.4 13.05v0c1.633 0.033 3.317 0.117 5.05 0.25 1.733 0.133 3.467 0.383 5.2 0.75v0l-0.3 3.2c-1.433-0.067-3.017-0.127-4.75-0.18-1.733-0.047-3.4-0.07-5-0.07v0c-1.233 0-2.29 0.04-3.17 0.12-0.887 0.087-1.613 0.287-2.18 0.6-0.567 0.32-0.973 0.837-1.22 1.55-0.253 0.72-0.38 1.713-0.38 2.98v0c0 1.9 0.34 3.223 1.02 3.97 0.687 0.753 1.797 1.313 3.33 1.68v0l7 1.75c2.667 0.633 4.493 1.74 5.48 3.32 0.98 1.587 1.47 3.713 1.47 6.38v0c0 2-0.223 3.617-0.67 4.85-0.453 1.233-1.147 2.173-2.08 2.82-0.933 0.653-2.133 1.107-3.6 1.36-1.467 0.247-3.2 0.37-5.2 0.37v0c-1.133 0-2.607-0.05-4.42-0.15-1.82-0.1-3.913-0.367-6.28-0.8v0l0.3-3.25c1.967 0.067 3.55 0.123 4.75 0.17 1.2 0.053 2.233 0.08 3.1 0.08 0.867 0 1.767 0 2.7 0v0c1.767 0 3.16-0.133 4.18-0.4 1.013-0.267 1.73-0.8 2.15-1.6 0.413-0.8 0.62-1.983 0.62-3.55v0c0-1.333-0.15-2.367-0.45-3.1-0.3-0.733-0.773-1.293-1.42-1.68-0.653-0.38-1.48-0.687-2.48-0.92v0l-7.15-1.8c-2.5-0.633-4.257-1.733-5.27-3.3-1.02-1.567-1.53-3.667-1.53-6.3v0c0-2 0.227-3.61 0.68-4.83 0.447-1.213 1.13-2.13 2.05-2.75 0.913-0.613 2.07-1.02 3.47-1.22 1.4-0.2 3.067-0.3 5-0.3zM146.7 23.2v0c2.8 0 5.043 0.417 6.73 1.25 1.68 0.833 2.887 2.19 3.62 4.07 0.733 1.887 1.1 4.38 1.1 7.48v0c0 3.1-0.367 5.593-1.1 7.48-0.733 1.88-1.94 3.237-3.62 4.07-1.687 0.833-3.93 1.25-6.73 1.25v0c-2.767 0-4.99-0.417-6.67-1.25-1.687-0.833-2.903-2.19-3.65-4.07-0.753-1.887-1.13-4.38-1.13-7.48v0c0-3.1 0.377-5.593 1.13-7.48 0.747-1.88 1.963-3.237 3.65-4.07 1.68-0.833 3.903-1.25 6.67-1.25zM146.7 26.8v0c-1.767 0-3.157 0.273-4.17 0.82-1.02 0.553-1.747 1.497-2.18 2.83-0.433 1.333-0.65 3.183-0.65 5.55v0c0 2.367 0.217 4.217 0.65 5.55 0.433 1.333 1.16 2.273 2.18 2.82 1.013 0.553 2.403 0.83 4.17 0.83v0c1.767 0 3.167-0.277 4.2-0.83 1.033-0.547 1.767-1.487 2.2-2.82 0.433-1.333 0.65-3.183 0.65-5.55v0c0-2.367-0.217-4.217-0.65-5.55-0.433-1.333-1.167-2.277-2.2-2.83-1.033-0.547-2.433-0.82-4.2-0.82zM164.85 13.15h4.25l-0.05 28.3c0 1.067 0.293 1.873 0.88 2.42 0.58 0.553 1.403 0.83 2.47 0.83v0h2.35l0.5 3.25c-0.3 0.133-0.723 0.25-1.27 0.35-0.553 0.1-1.12 0.177-1.7 0.23-0.587 0.047-1.08 0.07-1.48 0.07v0c-1.8 0-3.24-0.533-4.32-1.6-1.087-1.067-1.63-2.6-1.63-4.6v0zM179.5 23.8h4.25v17.1c-0.033 1.533 0.25 2.617 0.85 3.25 0.6 0.633 1.6 0.95 3 0.95v0c1.367 0 2.727-0.327 4.08-0.98 1.347-0.647 2.97-1.587 4.87-2.82v0l0.55 2.95c-1.9 1.5-3.74 2.633-5.52 3.4-1.787 0.767-3.597 1.15-5.43 1.15v0c-4.433 0-6.65-2.233-6.65-6.7v0zM196.1 23.8h4.25v24.35h-3.4l-0.4-4.6-0.45-0.75zM210 16.6h4.25v24.85c0 1.167 0.25 2 0.75 2.5 0.5 0.5 1.35 0.75 2.55 0.75v0h3.7l0.5 3.25c-0.533 0.133-1.15 0.25-1.85 0.35-0.7 0.1-1.383 0.177-2.05 0.23-0.667 0.047-1.2 0.07-1.6 0.07v0c-2.033 0-3.583-0.567-4.65-1.7-1.067-1.133-1.6-2.767-1.6-4.9v0zM210.4 23.8h11.6v3.35h-16.4v-3.1zM227.4 23.8h4.2v24.35h-4.2zM228.5 13.45h2c0.867 0 1.3 0.433 1.3 1.3v0 2.85c0 0.867-0.433 1.3-1.3 1.3v0h-2c-0.867 0-1.3-0.433-1.3-1.3v0-2.85c0-0.867 0.433-1.3 1.3-1.3zM249.9 23.2v0c2.8 0 5.043 0.417 6.73 1.25 1.68 0.833 2.887 2.19 3.62 4.07 0.733 1.887 1.1 4.38 1.1 7.48v0c0 3.1-0.367 5.593-1.1 7.48-0.733 1.88-1.94 3.237-3.62 4.07-1.687 0.833-3.93 1.25-6.73 1.25v0c-2.767 0-4.99-0.417-6.67-1.25-1.687-0.833-2.903-2.19-3.65-4.07-0.753-1.887-1.13-4.38-1.13-7.48v0c0-3.1 0.377-5.593 1.13-7.48 0.747-1.88 1.963-3.237 3.65-4.07 1.68-0.833 3.903-1.25 6.67-1.25zM249.9 26.8v0c-1.767 0-3.157 0.273-4.17 0.82-1.02 0.553-1.747 1.497-2.18 2.83-0.433 1.333-0.65 3.183-0.65 5.55v0c0 2.367 0.217 4.217 0.65 5.55 0.433 1.333 1.16 2.273 2.18 2.82 1.013 0.553 2.403 0.83 4.17 0.83v0c1.767 0 3.167-0.277 4.2-0.83 1.033-0.547 1.767-1.487 2.2-2.82 0.433-1.333 0.65-3.183 0.65-5.55v0c0-2.367-0.217-4.217-0.65-5.55-0.433-1.333-1.167-2.277-2.2-2.83-1.033-0.547-2.433-0.82-4.2-0.82zM282.8 23.2v0c4.4 0 6.6 2.233 6.6 6.7v0 18.25h-4.25v-17.05c0-1.633-0.267-2.76-0.8-3.38-0.533-0.613-1.433-0.92-2.7-0.92v0c-1.5 0-3 0.367-4.5 1.1-1.5 0.733-3.283 1.733-5.35 3v0l-0.2-3.05c1.9-1.467 3.783-2.61 5.65-3.43 1.867-0.813 3.717-1.22 5.55-1.22zM268 23.8h3.6l0.35 4.65 0.3 0.75v18.95h-4.25zM305.15 23.2v0c1.067 0 2.2 0.033 3.4 0.1 1.2 0.067 2.393 0.15 3.58 0.25 1.18 0.1 2.27 0.233 3.27 0.4v0l-0.35 3.1c-1.533-0.067-3.073-0.127-4.62-0.18-1.553-0.047-3.097-0.07-4.63-0.07v0c-1.5-0.033-2.683 0-3.55 0.1-0.867 0.1-1.49 0.367-1.87 0.8-0.387 0.433-0.58 1.167-0.58 2.2v0c0 1.267 0.3 2.1 0.9 2.5 0.6 0.4 1.483 0.733 2.65 1v0l7.1 1.6c1.933 0.467 3.36 1.183 4.28 2.15 0.913 0.967 1.37 2.483 1.37 4.55v0c0 2-0.373 3.5-1.12 4.5-0.753 1-1.897 1.667-3.43 2-1.533 0.333-3.483 0.5-5.85 0.5v0c-0.867 0-2.157-0.033-3.87-0.1-1.72-0.067-3.613-0.267-5.68-0.6v0l0.3-3.1c0.8 0.033 1.65 0.073 2.55 0.12 0.9 0.053 1.843 0.08 2.83 0.08 0.98 0 1.987 0 3.02 0v0c1.833 0 3.267-0.083 4.3-0.25 1.033-0.167 1.767-0.493 2.2-0.98 0.433-0.48 0.65-1.203 0.65-2.17v0c0-1.2-0.35-2-1.05-2.4-0.7-0.4-1.633-0.733-2.8-1v0l-7-1.6c-1.333-0.333-2.4-0.777-3.2-1.33-0.8-0.547-1.383-1.263-1.75-2.15-0.367-0.88-0.55-1.987-0.55-3.32v0c0-1.9 0.333-3.333 1-4.3 0.667-0.967 1.7-1.617 3.1-1.95 1.4-0.333 3.2-0.483 5.4-0.45z" fill="#34a572" fill-rule="nonzero" stroke="none" stroke-width="1" stroke-linecap="butt" stroke-linejoin="miter" stroke-miterlimit="10" stroke-dasharray="" stroke-dashoffset="0" font-family="none" font-weight="none" font-size="none" text-anchor="none" style="mix-blend-mode: normal" data-fill-palette-color="secondary" opacity="1"></path></g></svg></g></svg></g></svg></g></svg></g></svg></g><defs></defs></svg><rect width="395.52" height="179.40921337729628" fill="none" stroke="none" visibility="hidden"></rect></g></svg></g></svg>